<?xml version="1.0" encoding="utf-8"?>
<!-- Generator: Adobe Illustrator 22.0.1, SVG Export Plug-In . SVG Version: 6.00 Build 0)  -->
<svg version="1.0" id="logo-nova" xmlns="http://www.w3.org/2000/svg" xmlns:xlink="http://www.w3.org/1999/xlink" x="0px" y="0px"
	 viewBox="0 0 216 66" enable-background="new 0 0 216 66" xml:space="preserve">
<g>
	<path fill="#747B82" d="M75.58,45.79v1.3h0.99v0.71h-0.99v3.34c0,0.22,0.04,0.38,0.13,0.49c0.09,0.11,0.24,0.16,0.45,0.16
		c0.1,0,0.25-0.02,0.43-0.06v0.74c-0.24,0.07-0.47,0.1-0.7,0.1c-0.41,0-0.71-0.12-0.92-0.37c-0.21-0.25-0.31-0.6-0.31-1.06v-3.34
		h-0.97V47.1h0.97v-1.3H75.58z"/>
	<path fill="#747B82" d="M79.84,52.58c-0.72,0-1.3-0.24-1.76-0.72s-0.68-1.12-0.68-1.92v-0.17c0-0.53,0.1-1.01,0.3-1.43
		c0.2-0.42,0.48-0.75,0.84-0.98C78.91,47.12,79.3,47,79.72,47c0.69,0,1.23,0.23,1.61,0.69c0.38,0.46,0.57,1.12,0.57,1.98v0.38h-3.59
		c0.01,0.53,0.17,0.96,0.46,1.29c0.29,0.33,0.66,0.49,1.12,0.49c0.32,0,0.59-0.07,0.81-0.2c0.22-0.13,0.42-0.31,0.58-0.53l0.55,0.44
		C81.39,52.23,80.72,52.58,79.84,52.58z M79.72,47.75c-0.37,0-0.67,0.13-0.92,0.41s-0.4,0.65-0.46,1.14H81v-0.07
		c-0.03-0.47-0.15-0.83-0.37-1.09C80.4,47.88,80.1,47.75,79.72,47.75z"/>
	<path fill="#747B82" d="M85.08,51.83c0.32,0,0.61-0.1,0.85-0.3s0.38-0.45,0.4-0.75h0.86c-0.02,0.31-0.12,0.6-0.31,0.88
		c-0.19,0.28-0.45,0.5-0.77,0.67c-0.32,0.17-0.66,0.25-1.02,0.25c-0.72,0-1.3-0.25-1.72-0.73c-0.43-0.49-0.64-1.16-0.64-2.01v-0.15
		c0-0.52,0.09-0.99,0.28-1.4c0.19-0.41,0.46-0.72,0.82-0.95c0.35-0.23,0.77-0.34,1.26-0.34c0.59,0,1.09,0.18,1.48,0.54
		c0.39,0.36,0.6,0.83,0.63,1.41h-0.86c-0.03-0.35-0.16-0.63-0.39-0.86c-0.23-0.22-0.52-0.34-0.87-0.34c-0.46,0-0.82,0.17-1.07,0.5
		s-0.38,0.82-0.38,1.46v0.17c0,0.62,0.13,1.1,0.38,1.43C84.26,51.66,84.61,51.83,85.08,51.83z"/>
	<path fill="#747B82" d="M89.07,47.1l0.03,0.68C89.5,47.26,90.03,47,90.69,47c1.12,0,1.69,0.64,1.7,1.93v3.56h-0.91v-3.56
		c0-0.39-0.09-0.67-0.26-0.86c-0.17-0.19-0.44-0.28-0.8-0.28c-0.29,0-0.55,0.08-0.77,0.24c-0.22,0.16-0.4,0.37-0.52,0.63v3.84h-0.91
		V47.1H89.07z"/>
	<path fill="#747B82" d="M93.51,49.74c0-0.53,0.1-1,0.31-1.42c0.2-0.42,0.49-0.75,0.85-0.97c0.36-0.23,0.78-0.34,1.25-0.34
		c0.72,0,1.31,0.25,1.75,0.76s0.67,1.18,0.67,2.02v0.07c0,0.52-0.1,0.99-0.3,1.41c-0.2,0.42-0.48,0.74-0.85,0.97
		c-0.37,0.23-0.79,0.35-1.27,0.35c-0.72,0-1.3-0.25-1.75-0.76c-0.45-0.51-0.67-1.18-0.67-2.01V49.74z M94.42,49.85
		c0,0.6,0.14,1.08,0.41,1.44s0.64,0.54,1.1,0.54c0.46,0,0.83-0.18,1.1-0.55c0.27-0.37,0.41-0.88,0.41-1.54
		c0-0.59-0.14-1.07-0.41-1.44c-0.28-0.37-0.64-0.55-1.1-0.55c-0.45,0-0.81,0.18-1.08,0.54C94.56,48.66,94.42,49.18,94.42,49.85z"/>
	<path fill="#747B82" d="M100.47,52.48h-0.91v-7.64h0.91V52.48z"/>
	<path fill="#747B82" d="M101.68,49.74c0-0.53,0.1-1,0.31-1.42c0.2-0.42,0.49-0.75,0.85-0.97c0.36-0.23,0.78-0.34,1.25-0.34
		c0.72,0,1.31,0.25,1.75,0.76s0.67,1.18,0.67,2.02v0.07c0,0.52-0.1,0.99-0.3,1.41c-0.2,0.42-0.48,0.74-0.85,0.97
		c-0.37,0.23-0.79,0.35-1.27,0.35c-0.72,0-1.3-0.25-1.75-0.76c-0.45-0.51-0.67-1.18-0.67-2.01V49.74z M102.59,49.85
		c0,0.6,0.14,1.08,0.41,1.44s0.64,0.54,1.1,0.54c0.46,0,0.83-0.18,1.1-0.55c0.27-0.37,0.41-0.88,0.41-1.54
		c0-0.59-0.14-1.07-0.41-1.44c-0.28-0.37-0.64-0.55-1.1-0.55c-0.45,0-0.81,0.18-1.08,0.54C102.73,48.66,102.59,49.18,102.59,49.85z"
		/>
	<path fill="#747B82" d="M107.43,49.75c0-0.84,0.19-1.51,0.57-2s0.89-0.74,1.52-0.74c0.65,0,1.15,0.23,1.52,0.7l0.04-0.6h0.83v5.25
		c0,0.7-0.2,1.25-0.61,1.65c-0.41,0.4-0.95,0.6-1.64,0.6c-0.38,0-0.76-0.08-1.12-0.25s-0.65-0.39-0.84-0.68l0.47-0.55
		c0.39,0.49,0.86,0.73,1.43,0.73c0.44,0,0.79-0.13,1.03-0.38c0.25-0.25,0.37-0.61,0.37-1.06v-0.46c-0.36,0.42-0.86,0.64-1.49,0.64
		c-0.62,0-1.12-0.25-1.51-0.76C107.62,51.31,107.43,50.62,107.43,49.75z M108.34,49.85c0,0.61,0.12,1.08,0.37,1.43
		s0.59,0.52,1.03,0.52c0.57,0,0.99-0.26,1.26-0.79v-2.46c-0.28-0.51-0.7-0.77-1.25-0.77c-0.44,0-0.79,0.17-1.03,0.52
		C108.46,48.65,108.34,49.17,108.34,49.85z"/>
	<path fill="#747B82" d="M113.28,45.67c0-0.15,0.04-0.28,0.13-0.38c0.09-0.1,0.22-0.15,0.4-0.15c0.18,0,0.31,0.05,0.4,0.15
		c0.09,0.1,0.14,0.23,0.14,0.38s-0.05,0.27-0.14,0.37s-0.23,0.15-0.4,0.15c-0.18,0-0.31-0.05-0.4-0.15S113.28,45.82,113.28,45.67z
		 M114.26,52.48h-0.91V47.1h0.91V52.48z"/>
	<path fill="#747B82" d="M118.99,52.48c-0.05-0.11-0.09-0.29-0.13-0.57c-0.42,0.44-0.93,0.67-1.51,0.67c-0.52,0-0.95-0.15-1.29-0.45
		c-0.33-0.3-0.5-0.68-0.5-1.14c0-0.56,0.21-1,0.63-1.31c0.42-0.31,1.01-0.46,1.77-0.46h0.88v-0.42c0-0.32-0.09-0.58-0.29-0.77
		c-0.19-0.19-0.47-0.29-0.84-0.29c-0.32,0-0.6,0.08-0.81,0.25s-0.33,0.37-0.33,0.6h-0.91c0-0.27,0.09-0.53,0.28-0.78
		c0.19-0.25,0.44-0.45,0.76-0.59c0.32-0.15,0.68-0.22,1.06-0.22c0.61,0,1.09,0.16,1.44,0.47c0.35,0.31,0.53,0.74,0.54,1.28v2.48
		c0,0.49,0.06,0.89,0.19,1.18v0.08H118.99z M117.49,51.78c0.28,0,0.55-0.08,0.81-0.22s0.44-0.34,0.55-0.58v-1.1h-0.71
		c-1.11,0-1.67,0.33-1.67,0.99c0,0.29,0.09,0.51,0.29,0.68C116.95,51.7,117.19,51.78,117.49,51.78z"/>
	<path fill="#747B82" d="M125.79,51.83c0.32,0,0.61-0.1,0.85-0.3s0.38-0.45,0.4-0.75h0.86c-0.02,0.31-0.12,0.6-0.31,0.88
		c-0.19,0.28-0.45,0.5-0.77,0.67c-0.32,0.17-0.66,0.25-1.02,0.25c-0.72,0-1.3-0.25-1.72-0.73s-0.64-1.16-0.64-2.01v-0.15
		c0-0.52,0.09-0.99,0.28-1.4s0.46-0.72,0.82-0.95S125.3,47,125.79,47c0.6,0,1.09,0.18,1.48,0.54c0.39,0.36,0.6,0.83,0.63,1.41h-0.86
		c-0.03-0.35-0.16-0.63-0.39-0.86c-0.23-0.22-0.52-0.34-0.87-0.34c-0.46,0-0.82,0.17-1.07,0.5s-0.38,0.82-0.38,1.46v0.17
		c0,0.62,0.13,1.1,0.38,1.43C124.97,51.66,125.33,51.83,125.79,51.83z"/>
	<path fill="#747B82" d="M128.68,49.74c0-0.53,0.1-1,0.31-1.42c0.2-0.42,0.49-0.75,0.85-0.97c0.36-0.23,0.78-0.34,1.25-0.34
		c0.72,0,1.31,0.25,1.75,0.76s0.67,1.18,0.67,2.02v0.07c0,0.52-0.1,0.99-0.3,1.41c-0.2,0.42-0.48,0.74-0.85,0.97
		c-0.37,0.23-0.79,0.35-1.27,0.35c-0.72,0-1.3-0.25-1.75-0.76c-0.45-0.51-0.67-1.18-0.67-2.01V49.74z M129.59,49.85
		c0,0.6,0.14,1.08,0.41,1.44c0.27,0.36,0.64,0.54,1.1,0.54c0.46,0,0.83-0.18,1.1-0.55c0.27-0.37,0.41-0.88,0.41-1.54
		c0-0.59-0.14-1.07-0.41-1.44c-0.28-0.37-0.64-0.55-1.1-0.55c-0.45,0-0.81,0.18-1.08,0.54S129.59,49.18,129.59,49.85z"/>
	<path fill="#747B82" d="M135.51,47.1l0.03,0.68c0.41-0.52,0.93-0.78,1.59-0.78c1.12,0,1.69,0.64,1.7,1.93v3.56h-0.91v-3.56
		c0-0.39-0.09-0.67-0.26-0.86c-0.17-0.19-0.44-0.28-0.8-0.28c-0.29,0-0.55,0.08-0.78,0.24c-0.22,0.16-0.4,0.37-0.52,0.63v3.84h-0.91
		V47.1H135.51z"/>
	<path fill="#747B82" d="M142.39,52.58c-0.72,0-1.3-0.24-1.76-0.72s-0.68-1.12-0.68-1.92v-0.17c0-0.53,0.1-1.01,0.3-1.43
		c0.2-0.42,0.48-0.75,0.84-0.98c0.36-0.24,0.75-0.36,1.17-0.36c0.69,0,1.23,0.23,1.61,0.69c0.38,0.46,0.57,1.12,0.57,1.98v0.38
		h-3.59c0.01,0.53,0.17,0.96,0.46,1.29c0.29,0.33,0.67,0.49,1.12,0.49c0.32,0,0.59-0.07,0.81-0.2c0.22-0.13,0.42-0.31,0.58-0.53
		l0.55,0.44C143.95,52.23,143.28,52.58,142.39,52.58z M142.28,47.75c-0.37,0-0.67,0.13-0.92,0.41s-0.4,0.65-0.46,1.14h2.66v-0.07
		c-0.03-0.47-0.15-0.83-0.37-1.09C142.96,47.88,142.66,47.75,142.28,47.75z"/>
	<path fill="#747B82" d="M147.64,51.83c0.32,0,0.61-0.1,0.85-0.3s0.38-0.45,0.4-0.75h0.86c-0.02,0.31-0.12,0.6-0.31,0.88
		c-0.19,0.28-0.45,0.5-0.77,0.67c-0.32,0.17-0.66,0.25-1.02,0.25c-0.72,0-1.3-0.25-1.72-0.73s-0.64-1.16-0.64-2.01v-0.15
		c0-0.52,0.09-0.99,0.28-1.4s0.46-0.72,0.82-0.95s0.77-0.34,1.26-0.34c0.6,0,1.09,0.18,1.48,0.54c0.39,0.36,0.6,0.83,0.63,1.41
		h-0.86c-0.03-0.35-0.16-0.63-0.39-0.86c-0.23-0.22-0.52-0.34-0.87-0.34c-0.46,0-0.82,0.17-1.07,0.5s-0.38,0.82-0.38,1.46v0.17
		c0,0.62,0.13,1.1,0.38,1.43C146.81,51.66,147.17,51.83,147.64,51.83z"/>
	<path fill="#747B82" d="M152,45.79v1.3h0.99v0.71H152v3.34c0,0.22,0.04,0.38,0.13,0.49c0.09,0.11,0.24,0.16,0.45,0.16
		c0.1,0,0.25-0.02,0.43-0.06v0.74c-0.24,0.07-0.47,0.1-0.7,0.1c-0.41,0-0.71-0.12-0.92-0.37s-0.31-0.6-0.31-1.06v-3.34h-0.97V47.1
		h0.97v-1.3H152z"/>
	<path fill="#747B82" d="M157.32,52.48c-0.05-0.11-0.09-0.29-0.13-0.57c-0.42,0.44-0.93,0.67-1.51,0.67c-0.52,0-0.95-0.15-1.29-0.45
		c-0.33-0.3-0.5-0.68-0.5-1.14c0-0.56,0.21-1,0.63-1.31c0.42-0.31,1.01-0.46,1.77-0.46h0.88v-0.42c0-0.32-0.09-0.58-0.29-0.77
		c-0.19-0.19-0.47-0.29-0.84-0.29c-0.32,0-0.6,0.08-0.81,0.25s-0.33,0.37-0.33,0.6H154c0-0.27,0.09-0.53,0.28-0.78
		c0.19-0.25,0.44-0.45,0.76-0.59c0.32-0.15,0.68-0.22,1.06-0.22c0.61,0,1.09,0.16,1.44,0.47c0.35,0.31,0.53,0.74,0.54,1.28v2.48
		c0,0.49,0.06,0.89,0.19,1.18v0.08H157.32z M155.82,51.78c0.28,0,0.55-0.08,0.81-0.22s0.44-0.34,0.55-0.58v-1.1h-0.71
		c-1.11,0-1.67,0.33-1.67,0.99c0,0.29,0.09,0.51,0.29,0.68C155.28,51.7,155.52,51.78,155.82,51.78z"/>
	<path fill="#747B82" d="M160.37,47.1l0.03,0.68c0.41-0.52,0.93-0.78,1.59-0.78c1.12,0,1.69,0.64,1.7,1.93v3.56h-0.91v-3.56
		c0-0.39-0.09-0.67-0.26-0.86c-0.17-0.19-0.44-0.28-0.8-0.28c-0.29,0-0.55,0.08-0.78,0.24c-0.22,0.16-0.4,0.37-0.52,0.63v3.84h-0.91
		V47.1H160.37z"/>
	<path fill="#747B82" d="M164.83,49.75c0-0.83,0.19-1.49,0.58-1.99c0.39-0.5,0.89-0.75,1.51-0.75c0.62,0,1.11,0.22,1.48,0.65v-2.81
		h0.91v7.64h-0.83l-0.04-0.58c-0.36,0.45-0.87,0.68-1.52,0.68c-0.61,0-1.12-0.26-1.5-0.77s-0.58-1.18-0.58-2V49.75z M165.74,49.85
		c0,0.61,0.12,1.09,0.37,1.43c0.25,0.34,0.59,0.52,1.03,0.52c0.58,0,1-0.26,1.26-0.79v-2.47c-0.27-0.51-0.69-0.76-1.25-0.76
		c-0.44,0-0.79,0.17-1.04,0.52C165.86,48.65,165.74,49.17,165.74,49.85z"/>
	<path fill="#747B82" d="M170.48,49.74c0-0.53,0.1-1,0.31-1.42c0.2-0.42,0.49-0.75,0.85-0.97c0.36-0.23,0.78-0.34,1.25-0.34
		c0.72,0,1.31,0.25,1.75,0.76s0.67,1.18,0.67,2.02v0.07c0,0.52-0.1,0.99-0.3,1.41c-0.2,0.42-0.48,0.74-0.85,0.97
		c-0.37,0.23-0.79,0.35-1.27,0.35c-0.72,0-1.3-0.25-1.75-0.76c-0.45-0.51-0.67-1.18-0.67-2.01V49.74z M171.39,49.85
		c0,0.6,0.14,1.08,0.41,1.44c0.27,0.36,0.64,0.54,1.1,0.54c0.46,0,0.83-0.18,1.1-0.55c0.27-0.37,0.41-0.88,0.41-1.54
		c0-0.59-0.14-1.07-0.41-1.44c-0.28-0.37-0.64-0.55-1.1-0.55c-0.45,0-0.81,0.18-1.08,0.54S171.39,49.18,171.39,49.85z"/>
	<path fill="#747B82" d="M182.21,52.48c-0.05-0.11-0.09-0.29-0.13-0.57c-0.42,0.44-0.93,0.67-1.51,0.67c-0.52,0-0.95-0.15-1.29-0.45
		c-0.33-0.3-0.5-0.68-0.5-1.14c0-0.56,0.21-1,0.63-1.31c0.42-0.31,1.01-0.46,1.77-0.46h0.88v-0.42c0-0.32-0.09-0.58-0.29-0.77
		c-0.19-0.19-0.47-0.29-0.84-0.29c-0.32,0-0.6,0.08-0.81,0.25s-0.33,0.37-0.33,0.6h-0.91c0-0.27,0.09-0.53,0.28-0.78
		c0.19-0.25,0.44-0.45,0.76-0.59c0.32-0.15,0.68-0.22,1.06-0.22c0.61,0,1.09,0.16,1.44,0.47c0.35,0.31,0.53,0.74,0.54,1.28v2.48
		c0,0.49,0.06,0.89,0.19,1.18v0.08H182.21z M180.7,51.78c0.28,0,0.55-0.08,0.81-0.22s0.44-0.34,0.55-0.58v-1.1h-0.71
		c-1.11,0-1.67,0.33-1.67,0.99c0,0.29,0.09,0.51,0.29,0.68C180.16,51.7,180.4,51.78,180.7,51.78z"/>
	<path fill="#747B82" d="M189.97,51.05c0-0.25-0.09-0.44-0.28-0.58s-0.51-0.26-0.97-0.36c-0.46-0.1-0.82-0.22-1.09-0.36
		s-0.47-0.3-0.6-0.5s-0.19-0.42-0.19-0.69c0-0.44,0.18-0.81,0.55-1.12c0.37-0.3,0.84-0.46,1.41-0.46c0.6,0,1.09,0.16,1.46,0.47
		c0.38,0.32,0.56,0.72,0.56,1.21h-0.91c0-0.25-0.11-0.47-0.32-0.65s-0.48-0.27-0.8-0.27c-0.33,0-0.59,0.07-0.77,0.22
		c-0.19,0.15-0.28,0.34-0.28,0.57c0,0.22,0.09,0.39,0.26,0.5c0.17,0.11,0.49,0.22,0.94,0.32c0.45,0.1,0.82,0.23,1.1,0.37
		s0.49,0.31,0.63,0.51c0.14,0.2,0.2,0.45,0.2,0.73c0,0.48-0.19,0.87-0.57,1.16s-0.87,0.44-1.48,0.44c-0.43,0-0.8-0.08-1.13-0.23
		c-0.33-0.15-0.58-0.37-0.77-0.64s-0.28-0.57-0.28-0.89h0.91c0.02,0.31,0.14,0.55,0.37,0.73s0.53,0.27,0.9,0.27
		c0.34,0,0.62-0.07,0.83-0.21C189.87,51.48,189.97,51.29,189.97,51.05z"/>
	<path fill="#747B82" d="M195.33,52.48c-0.05-0.11-0.09-0.29-0.13-0.57c-0.42,0.44-0.93,0.67-1.51,0.67c-0.52,0-0.95-0.15-1.29-0.45
		c-0.33-0.3-0.5-0.68-0.5-1.14c0-0.56,0.21-1,0.63-1.31c0.42-0.31,1.01-0.46,1.77-0.46h0.88v-0.42c0-0.32-0.09-0.58-0.29-0.77
		c-0.19-0.19-0.47-0.29-0.84-0.29c-0.32,0-0.6,0.08-0.81,0.25s-0.33,0.37-0.33,0.6h-0.91c0-0.27,0.09-0.53,0.28-0.78
		c0.19-0.25,0.44-0.45,0.76-0.59c0.32-0.15,0.68-0.22,1.06-0.22c0.61,0,1.09,0.16,1.44,0.47c0.35,0.31,0.53,0.74,0.54,1.28v2.48
		c0,0.49,0.06,0.89,0.19,1.18v0.08H195.33z M193.83,51.78c0.28,0,0.55-0.08,0.81-0.22s0.44-0.34,0.55-0.58v-1.1h-0.71
		c-1.11,0-1.67,0.33-1.67,0.99c0,0.29,0.09,0.51,0.29,0.68C193.29,51.7,193.53,51.78,193.83,51.78z"/>
	<path fill="#747B82" d="M200.8,51.95c-0.35,0.42-0.87,0.63-1.55,0.63c-0.57,0-1-0.17-1.29-0.5c-0.3-0.33-0.45-0.83-0.45-1.48v-3.5
		h0.91v3.48c0,0.82,0.33,1.22,0.98,1.22c0.69,0,1.15-0.26,1.38-0.79V47.1h0.91v5.38h-0.86L200.8,51.95z M200.06,44.84h1.1
		l-1.31,1.46l-0.73,0L200.06,44.84z"/>
	<path fill="#747B82" d="M202.84,49.75c0-0.83,0.19-1.49,0.58-1.99c0.39-0.5,0.89-0.75,1.51-0.75c0.62,0,1.11,0.22,1.48,0.65v-2.81
		h0.91v7.64h-0.83l-0.04-0.58c-0.36,0.45-0.87,0.68-1.52,0.68c-0.61,0-1.12-0.26-1.5-0.77s-0.58-1.18-0.58-2V49.75z M203.74,49.85
		c0,0.61,0.12,1.09,0.37,1.43c0.25,0.34,0.59,0.52,1.03,0.52c0.58,0,1-0.26,1.26-0.79v-2.47c-0.27-0.51-0.69-0.76-1.25-0.76
		c-0.44,0-0.79,0.17-1.04,0.52C203.87,48.65,203.74,49.17,203.74,49.85z"/>
	<path fill="#747B82" d="M210.92,52.58c-0.72,0-1.3-0.24-1.76-0.72s-0.68-1.12-0.68-1.92v-0.17c0-0.53,0.1-1.01,0.3-1.43
		c0.2-0.42,0.48-0.75,0.84-0.98c0.36-0.24,0.75-0.36,1.17-0.36c0.69,0,1.23,0.23,1.61,0.69c0.38,0.46,0.57,1.12,0.57,1.98v0.38
		h-3.59c0.01,0.53,0.17,0.96,0.46,1.29c0.29,0.33,0.67,0.49,1.12,0.49c0.32,0,0.59-0.07,0.81-0.2c0.22-0.13,0.42-0.31,0.58-0.53
		l0.55,0.44C212.48,52.23,211.81,52.58,210.92,52.58z M210.81,47.75c-0.37,0-0.67,0.13-0.92,0.41s-0.4,0.65-0.46,1.14h2.66v-0.07
		c-0.03-0.47-0.15-0.83-0.37-1.09C211.49,47.88,211.19,47.75,210.81,47.75z"/>
</g>
<path fill="#C66CCA" d="M30.3,66h-1.48c-0.08-0.07-0.16-0.13-0.26-0.18c-2.16-0.77-3.19-2.22-2.81-4.59
	c-0.07-0.34-0.3-0.64-0.61-0.8c-5.81-3.2-11.64-6.37-17.46-9.56C7.26,50.53,6.65,50.59,6.3,51c-1.11,1.07-2.78,1.3-4.14,0.57
	c-1.34-0.59-2.19-1.94-2.14-3.41c-0.11-1.5,0.75-2.91,2.13-3.5c0.57-0.19,0.92-0.77,0.83-1.36c-0.03-6.4-0.03-12.81,0-19.21
	c0.01-1.16,0.03-2.2-1.37-2.56c-0.16-0.08-0.3-0.19-0.41-0.33c-1.39-1.37-1.59-3.55-0.47-5.15c1.21-1.59,3.43-2,5.13-0.94
	c0.37,0.26,0.82,0.36,1.26,0.27c6.03-3.32,12.03-6.68,18.02-10.08c0.28-0.18,0.48-0.47,0.54-0.8c0.29-2.96,0.78-3.61,3.58-4.49h0.42
	c2.69,0.81,3.69,1.89,3.56,4.12c-0.1,0.7,0.3,1.38,0.97,1.64c5.46,3.04,10.92,6.08,16.34,9.19c0.86,0.7,2.09,0.73,2.99,0.08
	c1.67-1,3.84-0.46,4.84,1.21c0.07,0.12,0.13,0.24,0.19,0.36c0.98,1.83,0.3,4.11-1.53,5.1c-0.05,0.02-0.09,0.05-0.14,0.07
	c-0.37,0.19-0.77,0.34-1.21,0.54v1.06c0,6.58,0.01,13.17-0.02,19.75c-0.12,0.66,0.3,1.31,0.95,1.46c1.94,0.75,2.9,2.92,2.16,4.86
	c-0.03,0.09-0.07,0.18-0.11,0.26c-0.86,1.96-3.37,3.01-5.13,1.8c-0.99-0.8-2.42-0.76-3.35,0.1c-0.36,0.22-0.74,0.42-1.12,0.6
	c-5.02,2.65-10.04,5.3-15.05,7.99c-0.38,0.18-0.66,0.53-0.76,0.94C33.63,63.62,32.49,65.11,30.3,66z M23.18,43.43
	c-0.49,0.09-0.7,0.12-0.91,0.17c-4.55,1.11-9.11,2.21-13.65,3.35c-0.4,0.08-0.75,0.32-0.96,0.67c-0.02,0.69-0.46,1.5,0.55,2.04
	c5.91,3.17,11.79,6.39,17.66,9.64c0.54,0.3,1.23,0.11,1.54-0.43c0.33-0.31,0.51-0.74,0.5-1.19c-0.94-4.19-1.88-8.39-2.99-12.53
	C24.71,44.42,23.69,43.92,23.18,43.43z M27.12,7.14c-0.45-0.58-0.75-1.05-1.57-0.58c-5.82,3.32-11.68,6.59-17.53,9.87
	c-0.44,0.13-0.68,0.6-0.55,1.03c0.01,0.02,0.01,0.03,0.02,0.05c0.02,0.5,0.43,0.89,0.93,0.9c2.95,0.25,5.89,0.57,8.84,0.89
	c0.83,0.09,1.67,0.35,2.25-0.61c0.26-0.16,0.55-0.27,0.85-0.33c0.37-0.13,0.69-0.35,0.95-0.65C23.26,14.23,25.17,10.71,27.12,7.14z
	 M40.12,46.94c-0.42,1.24-1.03,2.12-2.44,2.02c-0.27,0.05-0.5,0.21-0.64,0.45c-1.83,3.12-3.63,6.25-5.42,9.33
	c0.46,0.84,0.99,0.64,1.62,0.3c5.63-3,11.28-5.99,16.92-8.97c1.48-0.78,1.48-0.78,0.99-2.6L40.12,46.94z M5.68,44.72
	c0.13-0.25,0.28-0.53,0.4-0.82c1.21-2.83,2.44-5.66,3.61-8.51c0.09-0.49,0.13-0.99,0.1-1.49c0-0.65,0.12-1.3,0.37-1.9
	c0.32-0.42,0.33-0.99,0.02-1.42c-1.44-2.56-2.83-5.15-4.29-7.71c-0.21-0.39-0.57-0.67-1-0.78c-0.77-0.02-0.63,0.67-0.63,1.19
	c0,6.54,0.03,13.08-0.03,19.62c-0.18,0.8,0.33,1.6,1.13,1.77C5.46,44.71,5.57,44.72,5.68,44.72z M31.7,7.14
	c1.67,2.66,3.31,5.26,4.93,7.88c0.44,0.7,0.8,1.42,1.83,1.27c0.28,0,0.55,0.15,0.7,0.39c0.42,1.09,1.35,0.97,2.2,1.01
	c1.51,0.08,3.02,0.18,4.54,0.22c1.78,0.04,3.57,0.01,5.43,0.01c0.35-0.58,0.13-0.97-0.58-1.37c-3.46-1.9-6.9-3.86-10.34-5.8
	c-2.61-1.47-5.22-2.93-7.95-4.46L31.7,7.14z M41.97,24.91c-1.04-1.77-2.04-3.49-3.06-5.19c-0.7-0.63-1.67-0.86-2.58-0.61
	c-1.91,1.14-3.83,2.27-5.7,3.47c-0.38,0.28-0.63,0.7-0.69,1.17c-0.08,1.45-0.06,2.91-0.01,4.37c0.03,0.36,0.21,0.69,0.49,0.92
	c0.69,0.46,1.45,0.81,2.27,1.25L41.97,24.91z M24.73,25.5c1.17-0.7,2.26-1.28,3.27-1.98c0.34-0.27,0.56-0.67,0.6-1.1
	c0.04-4.66,0.04-9.31,0-13.97c-0.11-0.35-0.31-0.67-0.57-0.94c-0.31,0.13-0.59,0.32-0.83,0.57c-1.85,3.31-3.67,6.63-5.46,9.97
	c-0.08,0.33-0.08,0.68,0,1.02c0.02,0.44,0.05,0.88,0.09,1.32c-0.02,0.37,0.03,0.74,0.16,1.08C22.84,22.81,23.77,24.1,24.73,25.5z
	 M54.08,44.5c0.09-0.2,0.15-0.41,0.19-0.62c0.01-7.03,0.01-14.07,0-21.1c-0.06-0.3-0.15-0.58-0.29-0.85
	c-0.13,0.1-0.26,0.22-0.37,0.34c-1.63,2.9-3.27,5.8-4.87,8.72c-0.1,0.3-0.06,0.63,0.1,0.9c0.59,0.71,0.62,1.73,0.09,2.48
	c-0.31,0.39-0.31,0.95,0,1.34c1.55,2.66,3.06,5.34,4.6,8.02C53.66,43.95,53.83,44.15,54.08,44.5z M25.72,32.8
	c0.33-1.13-0.26-1.67-1.19-2.12c-1.11-0.53-2.14-1.24-3.24-1.78c-0.36-0.17-0.78-0.17-1.14-0.02c-1.93,1.1-3.83,2.25-5.72,3.42
	c-0.73,0.59-0.84,1.66-0.25,2.39c0.06,0.07,0.12,0.13,0.18,0.19c1.27,0.95,2.57,1.87,3.82,2.85c0.4,0.41,1.05,0.45,1.5,0.1
	c1.59-0.97,3.2-1.93,4.85-2.8C25.5,34.53,26.06,33.93,25.72,32.8L25.72,32.8z M14.15,31.88l6.02-3.63l-13.34-7.5
	c-0.2,0.56-1.23,0.57-0.7,1.52c1.57,2.82,3.11,5.65,4.69,8.46c0.16,0.2,0.38,0.35,0.63,0.41C12.21,31.36,12.99,31.56,14.15,31.88
	L14.15,31.88z M30.03,22.32c2.02-1.21,3.87-2.32,5.71-3.43c1.06-0.61,1.43-1.96,0.82-3.03c-0.02-0.03-0.04-0.07-0.06-0.1
	c-1.56-2.5-3.12-4.99-4.69-7.48c-0.24-0.38-0.33-0.92-1.08-0.73c-0.55,0.11-0.9,0.65-0.79,1.19c0.01,0.02,0.01,0.05,0.02,0.07
	c0.01,4.13,0,8.26,0.01,12.39C29.97,21.51,30.01,21.82,30.03,22.32L30.03,22.32z M24.3,25.78c-0.87-1.27-1.67-2.4-2.41-3.56
	c-0.26-0.63-0.91-1-1.59-0.91c-0.4-0.09-0.76-0.27-1.07-0.54c-0.29-0.23-0.61-0.41-0.96-0.53c-3.32-0.44-6.64-0.85-9.96-1.23
	c-0.27,0.04-0.54,0.14-0.77,0.29c0.13,0.22,0.3,0.42,0.5,0.58c4.27,2.42,8.54,4.82,12.83,7.2c0.32,0.17,0.7,0.19,1.05,0.07
	C22.7,26.78,23.44,26.29,24.3,25.78z M29.97,44.82c0,1.36,0,2.56,0,3.75c0,2.98-0.02,5.97,0.03,8.95c0.08,0.37,0.3,0.68,0.62,0.88
	c0.27,0.06,0.56-0.04,0.75-0.24c1.83-3.1,3.63-6.23,5.36-9.23c-0.35-0.65-0.62-1.18-0.91-1.69c-0.09-0.21-0.24-0.39-0.43-0.51
	C33.64,46.1,31.89,45.49,29.97,44.82z M5.99,45.23c0.47-0.05,0.94-0.16,1.39-0.32c1.91-1.07,3.8-2.17,5.69-3.27
	c1.76-1.02,3.51-2.04,5.37-3.12c-1.64-1.22-3.16-2.36-4.7-3.48c-0.17-0.1-0.37-0.13-0.56-0.1c-0.91,0.13-1.82,0.28-3,0.47
	L5.99,45.23z M43.08,25.82c1.01,1.71,1.94,3.33,2.92,4.92c0.55,0.62,1.51,0.67,2.13,0.12c0.1-0.09,0.18-0.18,0.25-0.29
	c1.53-2.71,3.06-5.42,4.54-8.16c0.12-0.32,0.08-0.67-0.11-0.95c-0.33-0.31-0.57-0.96-1.28-0.54C48.77,22.53,45.99,24.13,43.08,25.82
	z M42.64,26.06c-3.08,1.79-6.08,3.51-9.05,5.27c-0.22,0.18-0.33,0.46-0.31,0.75c0.11,0.26,0.35,0.44,0.62,0.49
	c3.45,0.19,6.89,0.36,10.34,0.51c0.9-0.17,1.5-1.04,1.33-1.94c-0.01-0.06-0.03-0.12-0.05-0.18C44.62,29.36,43.66,27.78,42.64,26.06z
	 M45.86,35.11l-3.01,4.76c0.36,0.23,0.65,0.42,0.95,0.6c2.48,1.48,5.01,2.9,7.44,4.47c0.55,0.51,1.41,0.48,1.92-0.06
	c0.1-0.11,0.18-0.23,0.25-0.37c-1.44-2.52-2.87-5.01-4.28-7.51c-0.55-0.98-0.97-2.08-2.45-1.7C46.39,35.28,46.11,35.22,45.86,35.11
	L45.86,35.11z M42.4,24.66l7.34-4.25c0.35-0.17,0.68-0.37,0.99-0.6c0.24-0.26,0.44-0.55,0.61-0.86c-0.27-0.16-0.57-0.28-0.88-0.36
	c-0.63-0.08-1.26-0.08-1.9-0.1c-2.74-0.13-5.49-0.27-8.23-0.37c-1-0.03-1.41,0.59-0.96,1.4C40.34,21.21,41.35,22.88,42.4,24.66z
	 M33.09,33.02c0.06,0.47,0.22,0.92,0.48,1.32c2.88,1.78,5.8,3.49,8.78,5.26c1.01-1.58,1.99-3.09,2.92-4.63
	c0.1-0.28,0.08-0.6-0.07-0.86c-0.13-0.27-0.37-0.46-0.66-0.54C40.85,33.37,37.16,33.21,33.09,33.02L33.09,33.02z M41.55,40.89
	c-2.91-1.78-5.74-3.49-8.55-5.24c-0.67-0.42-0.92-0.07-1.22,0.45c1.45,2.3,2.93,4.54,4.3,6.85c0.69,1.17,1.39,2.11,3.03,1.79
	L41.55,40.89z M7.51,46.39l0.05,0.2c0.14,0,0.28,0,0.41-0.03c4.86-1.17,9.71-2.34,14.57-3.51c0.75-0.18,0.88-0.79,0.26-1.3
	c-0.88-0.71-1.79-1.38-2.73-2c-0.29-0.16-0.63-0.18-0.94-0.05C15.24,41.92,11.38,44.16,7.51,46.39L7.51,46.39z M31.26,36.31
	c-0.59,0.23-1.32,0.06-1.3,1.07C30,39.44,29.94,41.5,30,43.56c0.06,0.38,0.29,0.7,0.63,0.88c1.5,0.59,3.04,1.11,4.58,1.61
	c0.27,0.07,0.56,0,0.77-0.19c0.26-0.36,0.37-0.81,0.31-1.25C34.66,41.82,32.96,39.09,31.26,36.31z M51.08,47.02l0.08-0.25l-9.15-5.6
	l-2.51,3.96c0.1,0.91,0.91,1.56,1.82,1.46c0.06-0.01,0.12-0.02,0.18-0.03c0.81-0.01,1.62,0.02,2.43,0.1L51.08,47.02z M28.42,57.7
	l0.2-0.02V46.27c0-1.98,0-1.98-1.89-2.56c-0.46-0.25-1.03-0.08-1.27,0.38c-0.13,0.24-0.15,0.52-0.05,0.78
	C26.4,49.15,27.41,53.43,28.42,57.7z M20.08,39.13c1.73,1.01,2.82,2.91,5.05,2.21c0.11-0.02,0.22-0.03,0.33-0.03l2.29-5.39
	c-0.52-0.21-1.07-0.3-1.63-0.26C24.13,36.72,22.21,37.89,20.08,39.13z M28.11,36.08c-0.84,1.98-1.56,3.65-2.26,5.33
	c-0.02,0.2,0.01,0.41,0.08,0.6c0.28,1.51,1.64,1.22,2.68,1.78c0-2.3,0.01-4.42-0.02-6.53C28.5,36.84,28.33,36.45,28.11,36.08
	L28.11,36.08z M28.59,23.78l-3.58,2.15l2.59,3.76c0.4-0.32,0.72-0.73,0.94-1.2C28.64,27.01,28.58,25.52,28.59,23.78L28.59,23.78z
	 M22.01,27.74c1.5,0.85,2.81,1.61,4.13,2.33c0.21,0.08,0.45,0.07,0.65-0.04c0.1-0.16,0.12-0.37,0.04-0.54
	c-0.73-1.11-1.49-2.2-2.25-3.31L22.01,27.74z"/>
<path id="Provita" fill="#C66CCA" d="M83.16,26.94c2.48,0.14,4.93-0.6,6.91-2.1c1.67-1.38,2.6-3.46,2.52-5.62
	c0.02-1.5-0.38-2.97-1.16-4.25c-0.79-1.26-1.93-2.27-3.29-2.89c-1.53-0.7-3.2-1.05-4.88-1.02h-9.59v24.03h5.79v-8.15H83.16
	L83.16,26.94z M79.46,15.53h3.86c0.94-0.04,1.84,0.34,2.48,1.02c0.63,0.75,0.96,1.71,0.91,2.69c0.05,0.88-0.27,1.74-0.88,2.38
	c-0.71,0.61-1.63,0.91-2.57,0.84h-3.8L79.46,15.53L79.46,15.53z M108.84,35.09h6.21v-0.25l-5.02-9.7c1.3-0.56,2.4-1.49,3.18-2.67
	c0.72-1.26,1.07-2.7,1.01-4.16c0.11-2.07-0.79-4.07-2.41-5.36c-1.95-1.37-4.31-2.04-6.68-1.9h-9.46v24.03h5.79v-8.5h3.13
	L108.84,35.09z M101.46,15.51h3.66c0.91-0.07,1.81,0.26,2.48,0.89c0.59,0.67,0.89,1.55,0.84,2.44c0.05,0.89-0.25,1.76-0.83,2.42
	c-0.67,0.62-1.57,0.94-2.48,0.87h-3.66V15.51z M138.07,22.46c0.03-2.13-0.43-4.23-1.35-6.15c-0.81-1.71-2.11-3.15-3.72-4.14
	c-3.39-1.94-7.56-1.94-10.95,0.02c-1.62,0.99-2.92,2.44-3.71,4.17c-0.9,1.95-1.34,4.08-1.3,6.23v1.35c0,2.09,0.48,4.15,1.39,6.02
	c0.82,1.68,2.11,3.08,3.71,4.04c1.65,0.96,3.54,1.45,5.45,1.41c1.92,0.03,3.82-0.47,5.47-1.46c1.62-0.99,2.91-2.44,3.71-4.17
	c0.9-1.95,1.34-4.08,1.3-6.22L138.07,22.46L138.07,22.46z M132.18,23.66c0.1,1.87-0.32,3.72-1.21,5.36c-0.7,1.19-2,1.91-3.38,1.86
	c-1.42,0.06-2.77-0.67-3.48-1.9c-0.88-1.67-1.28-3.55-1.17-5.43l0.02-1.77c0.17-4.36,1.7-6.54,4.61-6.54
	c1.39-0.05,2.71,0.66,3.43,1.86c0.9,1.66,1.32,3.55,1.2,5.44L132.18,23.66L132.18,23.66z M145.25,11.05h-6.42l8.02,24.03h6.34
	l8.09-24.03h-6.47l-4.79,17.5L145.25,11.05z M169.2,11.05h-5.78v24.04h5.78V11.05L169.2,11.05z M191.61,11.05h-20.08v4.47h7.08
	v19.56h5.79V15.53h7.21L191.61,11.05L191.61,11.05z M207.13,35.09h6.22l-8.88-24.03h-5.45l-8.81,24.03h6.19l1.39-4.49h7.94
	L207.13,35.09z M201.75,17.79l2.59,8.33h-5.17L201.75,17.79z"/>
</svg>
